<svg id="visual" viewBox="0 0 960 540" width="960" height="540" xmlns="http://www.w3.org/2000/svg" xmlns:xlink="http://www.w3.org/1999/xlink" version="1.1"><path d="M0 135L22.8 143.3C45.7 151.7 91.3 168.3 137 175C182.7 181.7 228.3 178.3 274 184C319.7 189.7 365.3 204.3 411.2 212C457 219.7 503 220.3 548.8 209.5C594.7 198.7 640.3 176.3 686 173.5C731.7 170.7 777.3 187.3 823 190.5C868.7 193.7 914.3 183.3 937.2 178.2L960 173L960 0L937.2 0C914.3 0 868.7 0 823 0C777.3 0 731.7 0 686 0C640.3 0 594.7 0 548.8 0C503 0 457 0 411.2 0C365.3 0 319.7 0 274 0C228.3 0 182.7 0 137 0C91.3 0 45.7 0 22.8 0L0 0Z" fill="#2e587b"></path><path d="M0 168L22.8 167.3C45.7 166.7 91.3 165.3 137 157.5C182.7 149.7 228.3 135.3 274 134.5C319.7 133.7 365.3 146.3 411.2 144.2C457 142 503 125 548.8 118.2C594.7 111.3 640.3 114.7 686 125.7C731.7 136.7 777.3 155.3 823 154.3C868.7 153.3 914.3 132.7 937.2 122.3L960 112L960 0L937.2 0C914.3 0 868.7 0 823 0C777.3 0 731.7 0 686 0C640.3 0 594.7 0 548.8 0C503 0 457 0 411.2 0C365.3 0 319.7 0 274 0C228.3 0 182.7 0 137 0C91.3 0 45.7 0 22.8 0L0 0Z" fill="#4d6d97"></path><path d="M0 88L22.8 88.7C45.7 89.3 91.3 90.7 137 98.7C182.7 106.7 228.3 121.3 274 126.7C319.7 132 365.3 128 411.2 125.3C457 122.7 503 121.3 548.8 121.8C594.7 122.3 640.3 124.7 686 120.2C731.7 115.7 777.3 104.3 823 106C868.7 107.7 914.3 122.3 937.2 129.7L960 137L960 0L937.2 0C914.3 0 868.7 0 823 0C777.3 0 731.7 0 686 0C640.3 0 594.7 0 548.8 0C503 0 457 0 411.2 0C365.3 0 319.7 0 274 0C228.3 0 182.7 0 137 0C91.3 0 45.7 0 22.8 0L0 0Z" fill="#6d83b3"></path><path d="M0 67L22.8 68.8C45.7 70.7 91.3 74.3 137 74.3C182.7 74.3 228.3 70.7 274 72.8C319.7 75 365.3 83 411.2 83.8C457 84.7 503 78.3 548.8 72.5C594.7 66.7 640.3 61.3 686 58.7C731.7 56 777.3 56 823 61.3C868.7 66.7 914.3 77.3 937.2 82.7L960 88L960 0L937.2 0C914.3 0 868.7 0 823 0C777.3 0 731.7 0 686 0C640.3 0 594.7 0 548.8 0C503 0 457 0 411.2 0C365.3 0 319.7 0 274 0C228.3 0 182.7 0 137 0C91.3 0 45.7 0 22.8 0L0 0Z" fill="#8f99ce"></path><path d="M0 54L22.8 53.3C45.7 52.7 91.3 51.3 137 52.3C182.7 53.3 228.3 56.7 274 52.5C319.7 48.3 365.3 36.7 411.2 32C457 27.3 503 29.7 548.8 33.2C594.7 36.7 640.3 41.3 686 42.5C731.7 43.7 777.3 41.3 823 40.7C868.7 40 914.3 41 937.2 41.5L960 42L960 0L937.2 0C914.3 0 868.7 0 823 0C777.3 0 731.7 0 686 0C640.3 0 594.7 0 548.8 0C503 0 457 0 411.2 0C365.3 0 319.7 0 274 0C228.3 0 182.7 0 137 0C91.3 0 45.7 0 22.8 0L0 0Z" fill="#b3afe9"></path></svg>