<svg id="visual" viewBox="0 0 900 600" width="900" height="600" xmlns="http://www.w3.org/2000/svg" xmlns:xlink="http://www.w3.org/1999/xlink" version="1.1"><path d="M0 448L21.5 438.7C43 429.3 86 410.7 128.8 403.3C171.7 396 214.3 400 257.2 393.8C300 387.7 343 371.3 385.8 362.7C428.7 354 471.3 353 514.2 365C557 377 600 402 642.8 405.2C685.7 408.3 728.3 389.7 771.2 386.2C814 382.7 857 394.3 878.5 400.2L900 406L900 601L878.5 601C857 601 814 601 771.2 601C728.3 601 685.7 601 642.8 601C600 601 557 601 514.2 601C471.3 601 428.7 601 385.8 601C343 601 300 601 257.2 601C214.3 601 171.7 601 128.8 601C86 601 43 601 21.5 601L0 601Z" fill="#fa7268"></path><path d="M0 412L21.5 412.7C43 413.3 86 414.7 128.8 423.2C171.7 431.7 214.3 447.3 257.2 448.2C300 449 343 435 385.8 437.5C428.7 440 471.3 459 514.2 466.7C557 474.3 600 470.7 642.8 458.3C685.7 446 728.3 425 771.2 426C814 427 857 450 878.5 461.5L900 473L900 601L878.5 601C857 601 814 601 771.2 601C728.3 601 685.7 601 642.8 601C600 601 557 601 514.2 601C471.3 601 428.7 601 385.8 601C343 601 300 601 257.2 601C214.3 601 171.7 601 128.8 601C86 601 43 601 21.5 601L0 601Z" fill="#fa7998"></path><path d="M0 500L21.5 499.2C43 498.3 86 496.7 128.8 487.7C171.7 478.7 214.3 462.3 257.2 456.5C300 450.7 343 455.3 385.8 458.5C428.7 461.7 471.3 463.3 514.2 462.7C557 462 600 459 642.8 463.8C685.7 468.7 728.3 481.3 771.2 479.7C814 478 857 462 878.5 454L900 446L900 601L878.5 601C857 601 814 601 771.2 601C728.3 601 685.7 601 642.8 601C600 601 557 601 514.2 601C471.3 601 428.7 601 385.8 601C343 601 300 601 257.2 601C214.3 601 171.7 601 128.8 601C86 601 43 601 21.5 601L0 601Z" fill="#ea8ac1"></path><path d="M0 524L21.5 521.8C43 519.7 86 515.3 128.8 515.2C171.7 515 214.3 519 257.2 516.7C300 514.3 343 505.7 385.8 504.8C428.7 504 471.3 511 514.2 517.5C557 524 600 530 642.8 533C685.7 536 728.3 536 771.2 530.2C814 524.3 857 512.7 878.5 506.8L900 501L900 601L878.5 601C857 601 814 601 771.2 601C728.3 601 685.7 601 642.8 601C600 601 557 601 514.2 601C471.3 601 428.7 601 385.8 601C343 601 300 601 257.2 601C214.3 601 171.7 601 128.8 601C86 601 43 601 21.5 601L0 601Z" fill="#cf9ddd"></path><path d="M0 537L21.5 537.8C43 538.7 86 540.3 128.8 539.3C171.7 538.3 214.3 534.7 257.2 539.3C300 544 343 557 385.8 562.2C428.7 567.3 471.3 564.7 514.2 560.8C557 557 600 552 642.8 550.7C685.7 549.3 728.3 551.7 771.2 552.3C814 553 857 552 878.5 551.5L900 551L900 601L878.5 601C857 601 814 601 771.2 601C728.3 601 685.7 601 642.8 601C600 601 557 601 514.2 601C471.3 601 428.7 601 385.8 601C343 601 300 601 257.2 601C214.3 601 171.7 601 128.8 601C86 601 43 601 21.5 601L0 601Z" fill="#b3afe9"></path></svg>